<?xml version="1.0" standalone="no"?><svg xmlns="http://www.w3.org/2000/svg" viewBox="0 0 1440 320"><path fill="#f34414" fill-opacity="1" d="M0,288L24,256C48,224,96,160,144,122.7C192,85,240,75,288,74.7C336,75,384,85,432,122.7C480,160,528,224,576,234.7C624,245,672,203,720,170.7C768,139,816,117,864,101.3C912,85,960,75,1008,74.7C1056,75,1104,85,1152,112C1200,139,1248,181,1296,181.3C1344,181,1392,139,1416,117.3L1440,96L1440,0L1416,0C1392,0,1344,0,1296,0C1248,0,1200,0,1152,0C1104,0,1056,0,1008,0C960,0,912,0,864,0C816,0,768,0,720,0C672,0,624,0,576,0C528,0,480,0,432,0C384,0,336,0,288,0C240,0,192,0,144,0C96,0,48,0,24,0L0,0Z"></path></svg>