<?xml version="1.0" standalone="no"?><svg xmlns="http://www.w3.org/2000/svg" viewBox="0 0 1440 320"><path fill="#f34414" fill-opacity="1" d="M0,288L40,261.3C80,235,160,181,240,181.3C320,181,400,235,480,261.3C560,288,640,288,720,245.3C800,203,880,117,960,90.7C1040,64,1120,96,1200,133.3C1280,171,1360,213,1400,234.7L1440,256L1440,320L1400,320C1360,320,1280,320,1200,320C1120,320,1040,320,960,320C880,320,800,320,720,320C640,320,560,320,480,320C400,320,320,320,240,320C160,320,80,320,40,320L0,320Z"></path></svg>